<?xml version="1.0" encoding="us-ascii" standalone="no"?><svg xmlns="http://www.w3.org/2000/svg" xmlns:xlink="http://www.w3.org/1999/xlink" contentStyleType="text/css" height="419px" preserveAspectRatio="none" style="width:811px;height:419px;background:#FFFFFF;" version="1.1" viewBox="0 0 811 419" width="811px" zoomAndPan="magnify"><defs/><g><!--cluster P?le m?dical--><g id="cluster_P&#244;le m&#233;dical"><path d="M293.5,85.5 L393.5,85.5 A3.75,3.75 0 0 1 396,88 L403,107.7969 L801.5,107.7969 A2.5,2.5 0 0 1 804,110.2969 L804,300 A2.5,2.5 0 0 1 801.5,302.5 L293.5,302.5 A2.5,2.5 0 0 1 291,300 L291,88 A2.5,2.5 0 0 1 293.5,85.5 " fill="none" style="stroke:#000000;stroke-width:1.5;"/><line style="stroke:#000000;stroke-width:1.5;" x1="291" x2="403" y1="107.7969" y2="107.7969"/><text fill="#000000" font-family="sans-serif" font-size="14" font-weight="bold" lengthAdjust="spacing" textLength="99" x="295" y="100.4951">P&#244;le m&#233;dical</text></g><g id="elem_Gestion des consultations"><ellipse cx="414.7482" cy="168.4496" fill="#F1F1F1" rx="107.7482" ry="23.9496" style="stroke:#181818;stroke-width:0.5;"/><text fill="#000000" font-family="sans-serif" font-size="14" lengthAdjust="spacing" textLength="181" x="324.2482" y="171.2963">Gestion des consultations</text></g><g id="elem_Consulter des statistiques"><ellipse cx="414.7482" cy="251.4496" fill="#F1F1F1" rx="107.7482" ry="23.9496" style="stroke:#181818;stroke-width:0.5;"/><text fill="#000000" font-family="sans-serif" font-size="14" lengthAdjust="spacing" textLength="181" x="324.2482" y="254.2963">Consulter des statistiques</text></g><g id="elem_Gestion S&#233;ance"><ellipse cx="711.5612" cy="138.7122" fill="#F1F1F1" rx="76.5612" ry="17.7122" style="stroke:#181818;stroke-width:0.5;"/><text fill="#000000" font-family="sans-serif" font-size="14" lengthAdjust="spacing" textLength="110" x="653.5612" y="142.4598">Gestion S&#233;ance</text></g><g id="elem_Authentification"><ellipse cx="711.3844" cy="230.4769" fill="#F1F1F1" rx="75.3844" ry="17.4769" style="stroke:#181818;stroke-width:0.5;"/><text fill="#000000" font-family="sans-serif" font-size="14" lengthAdjust="spacing" textLength="107" x="654.8844" y="234.2244">Authentification</text></g><!--entity dentiste--><g id="elem_dentiste"><ellipse cx="214.5" cy="181" fill="#F1F1F1" rx="8" ry="8" style="stroke:#181818;stroke-width:0.5;"/><path d="M214.5,189 L214.5,216 M201.5,197 L227.5,197 M214.5,216 L201.5,231 M214.5,216 L227.5,231 " fill="none" style="stroke:#181818;stroke-width:0.5;"/><text fill="#000000" font-family="sans-serif" font-size="14" lengthAdjust="spacing" textLength="59" x="185" y="245.4951">Dentiste</text></g><!--entity orthoptiste--><g id="elem_orthoptiste"><ellipse cx="65" cy="14" fill="#F1F1F1" rx="8" ry="8" style="stroke:#181818;stroke-width:0.5;"/><path d="M65,22 L65,49 M52,30 L78,30 M65,49 L52,64 M65,49 L78,64 " fill="none" style="stroke:#181818;stroke-width:0.5;"/><text fill="#000000" font-family="sans-serif" font-size="14" lengthAdjust="spacing" textLength="78" x="26" y="78.4951">Orthoptiste</text></g><!--entity orthophoniste--><g id="elem_orthophoniste"><ellipse cx="65" cy="125" fill="#F1F1F1" rx="8" ry="8" style="stroke:#181818;stroke-width:0.5;"/><path d="M65,133 L65,160 M52,141 L78,141 M65,160 L52,175 M65,160 L78,175 " fill="none" style="stroke:#181818;stroke-width:0.5;"/><text fill="#000000" font-family="sans-serif" font-size="14" lengthAdjust="spacing" textLength="100" x="15" y="189.4951">Orthophoniste</text></g><!--entity psychomotrice--><g id="elem_psychomotrice"><ellipse cx="65" cy="236" fill="#F1F1F1" rx="8" ry="8" style="stroke:#181818;stroke-width:0.5;"/><path d="M65,244 L65,271 M52,252 L78,252 M65,271 L52,286 M65,271 L78,286 " fill="none" style="stroke:#181818;stroke-width:0.5;"/><text fill="#000000" font-family="sans-serif" font-size="14" lengthAdjust="spacing" textLength="102" x="14" y="300.4951">Psychomotrice</text></g><!--entity kin?sith?rapeute--><g id="elem_kin&#233;sith&#233;rapeute"><ellipse cx="65" cy="347" fill="#F1F1F1" rx="8" ry="8" style="stroke:#181818;stroke-width:0.5;"/><path d="M65,355 L65,382 M52,363 L78,363 M65,382 L52,397 M65,382 L78,397 " fill="none" style="stroke:#181818;stroke-width:0.5;"/><text fill="#000000" font-family="sans-serif" font-size="14" lengthAdjust="spacing" textLength="118" x="6" y="411.4951">Kin&#233;sith&#233;rapeute</text></g><!--link dentiste to Gestion des consultations--><g id="link_dentiste_Gestion des consultations"><path d="M244.29,204.39 C268.32,199.3 297.8405,193.0346 330.0505,186.2046 " fill="none" id="dentiste-to-Gestion des consultations" style="stroke:#181818;stroke-width:1.0;"/><polygon fill="#181818" points="335.92,184.96,326.286,182.9139,331.0288,185.9972,327.9455,190.7399,335.92,184.96" style="stroke:#181818;stroke-width:1.0;"/></g><!--link dentiste to Consulter des statistiques--><g id="link_dentiste_Consulter des statistiques"><path d="M244.29,216.46 C268.1,221.39 297.2049,227.412 329.1849,234.042 " fill="none" id="dentiste-to-Consulter des statistiques" style="stroke:#181818;stroke-width:1.0;"/><polygon fill="#181818" points="335.06,235.26,327.0594,229.5163,330.1641,234.245,325.4354,237.3497,335.06,235.26" style="stroke:#181818;stroke-width:1.0;"/></g><!--link orthoptiste to dentiste--><g id="link_orthoptiste_dentiste"><path d="M104.18,78.27 C110.95,84.83 117.8,91.76 124,98.5 C145.64,122.05 168.1,150.18 185.11,172.36 " fill="none" id="orthoptiste-dentiste" style="stroke:#181818;stroke-width:1.0;"/></g><!--link orthophoniste to dentiste--><g id="link_orthophoniste_dentiste"><path d="M115.12,173.15 C138.25,181.93 165.03,192.1 184.8,199.61 " fill="none" id="orthophoniste-dentiste" style="stroke:#181818;stroke-width:1.0;"/></g><!--link psychomotrice to dentiste--><g id="link_psychomotrice_dentiste"><path d="M116.35,246.73 C139.22,238.2 165.43,228.42 184.86,221.18 " fill="none" id="psychomotrice-dentiste" style="stroke:#181818;stroke-width:1.0;"/></g><!--link kin?sith?rapeute to dentiste--><g id="link_kin&#233;sith&#233;rapeute_dentiste"><path d="M107.55,338.4 C113.19,332.85 118.82,327.11 124,321.5 C145.49,298.21 167.86,270.46 184.87,248.54 " fill="none" id="kin&#233;sith&#233;rapeute-dentiste" style="stroke:#181818;stroke-width:1.0;"/></g><!--reverse link Gestion des consultations to Gestion S?ance--><g id="link_Gestion des consultations_Gestion S&#233;ance"><path d="M530.4076,156.819 C572.3976,152.549 602.68,149.47 641,145.57 " fill="none" id="Gestion des consultations-backto-Gestion S&#233;ance" style="stroke:#181818;stroke-width:1.0;"/><polygon fill="none" points="512.5,158.64,531.0147,162.7882,529.8006,150.8497,512.5,158.64" style="stroke:#181818;stroke-width:1.0;"/><text fill="#000000" font-family="sans-serif" font-size="13" lengthAdjust="spacing" textLength="51" x="553" y="146.5669">extends</text></g><!--link Gestion des consultations to Authentification--><g id="link_Gestion des consultations_Authentification"><path d="M493.39,184.87 C544.26,195.56 609.46,209.27 655.08,218.85 " fill="none" id="Gestion des consultations-Authentification" style="stroke:#181818;stroke-width:1.0;"/><text fill="#000000" font-family="sans-serif" font-size="13" lengthAdjust="spacing" textLength="45" x="556" y="194.5669">include</text></g><!--link Consulter des statistiques to Authentification--><g id="link_Consulter des statistiques_Authentification"><path d="M518.5,257.9 C546.62,258.35 577.04,257.64 605,254.5 C623.95,252.37 644.45,248.16 662.31,243.85 " fill="none" id="Consulter des statistiques-Authentification" style="stroke:#181818;stroke-width:1.0;"/><text fill="#000000" font-family="sans-serif" font-size="13" lengthAdjust="spacing" textLength="45" x="556" y="250.5669">include</text></g><!--SRC=[XP11QWCX58RtdkAHLRF81Kefb1QwwAA1da3q9KgCJdnFQ6bxeDdt1bwiEXacCGC9kD3__txrVmut31mWsgrXq3QYOXky459nYF22dYqnWYJGutwqtYERq4rkE1qRm0JV8gCmGclwKYRi0qUh1gWx5qRepVhSasMJ-oWxJCVhTZDLY4wgdTmYBDRvpo7iSw-jacu1tqB0r01MgqUuUqMgLOjAe8Adv5XMWPOpzFbeOnnWgbp97X8ER5bdxKlYD2feIrzuJTSBRzwk0GfnfG0y_1Hu0ZvoBxt29Tm3VZ9wJJVYDVoKsDJNDcM0LQvfwvLBkdxlsaXknd_5Fm00]--></g></svg>